<svg width="136" height="37" viewBox="0 0 136 37" fill="none" xmlns="http://www.w3.org/2000/svg">
<path d="M8.88 1.6C9.46667 0.879999 10.1733 0.479998 11 0.399998C11.8267 0.319999 12.6267 0.453332 13.4 0.799997C14.1733 1.12 14.8267 1.62667 15.36 2.32C15.92 2.98667 16.2267 3.73333 16.28 4.56L15.92 5.72C16.2133 6.06667 16.4667 6.34667 16.68 6.56C16.92 6.77333 17.0533 7.10666 17.08 7.56C17.24 7.93333 16.5733 9.41333 15.08 12C14.4667 13.0667 13.8133 14.1867 13.12 15.36C12.4533 16.5067 11.9067 17.5333 11.48 18.44C11.8 18.36 12.12 18.2933 12.44 18.24C12.76 18.1867 13.08 18.12 13.4 18.04C15.3733 17.5333 16.7067 17.28 17.4 17.28C18.0933 17.2533 18.6667 17.32 19.12 17.48C20.3467 17.96 20.9867 18.7067 21.04 19.72C20.6667 20.6 19.2667 21.8267 16.84 23.4C16.28 23.7467 15.8267 24.04 15.48 24.28L12 26.76C11.8133 27.0533 11.68 27.3333 11.6 27.6V27.64C11.6533 27.7733 11.9867 27.96 12.6 28.2C13.24 28.44 13.7867 28.6533 14.24 28.84C15.3067 29.32 16.2533 29.9733 17.08 30.8C17.3467 31.0933 17.52 31.5333 17.6 32.12C17.68 32.68 17.5867 33.2 17.32 33.68C17.08 34.16 16.64 34.5067 16 34.72C15.36 34.9333 14.4667 34.84 13.32 34.44C11.64 33.6933 9.65333 32.0267 7.36 29.44C7.09333 30.3733 6.82667 31.2933 6.56 32.2C6.32 33.08 6.05333 33.9867 5.76 34.92C5.36 35.8267 4.42667 36.2533 2.96 36.2C2.37333 36.2 1.84 36.08 1.36 35.84C0.906667 35.6 0.64 35.28 0.56 34.88C0.346667 34.2933 0.24 33.8533 0.24 33.56C0.24 33.2933 0.306667 32.9733 0.44 32.6C1.05333 31.0533 1.44 29.8267 1.6 28.92C1.76 27.9867 1.86667 27.44 1.92 27.28C1.17333 26.8 0.733333 26.04 0.6 25C0.44 23.9867 0.68 23.08 1.32 22.28C2.17333 21.96 2.78667 21.72 3.16 21.56C3.32 20.5467 3.58667 19.4533 3.96 18.28C4.62667 16.1733 5.13333 14.3467 5.48 12.8C5.85333 11.2533 6.37333 9.50667 7.04 7.56C7.73333 5.58667 8.34667 3.6 8.88 1.6ZM24.1834 16.44C24.5568 15.48 25.0768 14.76 25.7434 14.28C26.4368 13.7733 27.0901 13.4667 27.7034 13.36C28.3434 13.2267 28.8634 13.2933 29.2634 13.56C29.6901 13.8267 29.8368 14.24 29.7034 14.8C30.2101 14.2933 30.9434 13.8267 31.9034 13.4C32.8634 12.9733 33.6234 12.68 34.1834 12.52C34.7434 12.36 35.2234 12.28 35.6234 12.28C36.5034 12.3333 36.7568 12.8133 36.3834 13.72C36.8368 13.8 37.1701 14.0933 37.3834 14.6C37.5968 15.1067 37.6234 15.6667 37.4634 16.28C37.3034 16.8933 36.9434 17.4933 36.3834 18.08C35.8234 18.6667 35.0634 19.0667 34.1034 19.28C33.1701 19.4933 32.3834 19.9867 31.7434 20.76C31.1301 21.5067 30.5834 22.44 30.1034 23.56C29.3034 25.4533 28.5834 28.1333 27.9434 31.6C27.7301 32.8533 26.8634 33.9067 25.3434 34.76C23.9034 35.5867 22.5834 35.8267 21.3834 35.48C20.0234 35.1067 19.4234 34.1067 19.5834 32.48C19.6368 31.3333 19.9834 29.8133 20.6234 27.92C21.2634 26 21.7568 24.56 22.1034 23.6C22.4501 22.6133 22.6901 21.8667 22.8234 21.36L24.1834 16.44ZM49.8819 27.08C49.3752 27.32 48.8819 27.5067 48.4019 27.64C47.9219 27.7733 47.3619 27.9067 46.7219 28.04C45.0419 28.3867 43.8285 28.5867 43.0819 28.64C43.1619 28.9067 43.5619 29.2267 44.2819 29.6C44.7619 29.68 45.2819 29.6133 45.8419 29.4C46.4285 29.16 47.0285 28.9467 47.6419 28.76C48.2819 28.5467 48.8952 28.4267 49.4819 28.4C50.0952 28.3733 50.6685 28.6 51.2019 29.08C51.4152 29.56 51.5885 29.84 51.7219 29.92C51.8552 30 51.9752 30.04 52.0819 30.04C52.1885 30.04 52.3085 30.08 52.4419 30.16C52.5752 30.24 52.7619 30.5467 53.0019 31.08C53.2685 31.6133 53.2019 32.12 52.8019 32.6C52.4285 33.08 51.8419 33.4933 51.0419 33.84C50.2419 34.1867 49.3085 34.4667 48.2419 34.68C47.1752 34.8933 46.1085 35.04 45.0419 35.12C42.6419 35.3067 40.8152 35.12 39.5619 34.56C37.7485 33.9467 36.5752 32.7333 36.0419 30.92C35.3485 28.52 35.7352 25.72 37.2019 22.52C37.8685 21.0267 38.9219 19.4267 40.3619 17.72C41.6152 16.2267 43.0152 15.1467 44.5619 14.48C46.3485 13.7067 48.2152 13.3467 50.1619 13.4C52.2419 13.4533 53.6819 14.36 54.4819 16.12C54.8819 17.0533 54.9619 18.36 54.7219 20.04C54.2952 22.2267 53.7352 23.7733 53.0419 24.68C52.3485 25.56 51.2952 26.36 49.8819 27.08ZM47.5619 20.76C46.1485 20.4667 45.0419 21.2667 44.2419 23.16C44.0019 23.6667 43.8152 24.2 43.6819 24.76C44.5885 24.8667 45.5485 24.36 46.5619 23.24C46.9352 22.7867 47.2152 22.3333 47.4019 21.88C47.5885 21.4 47.6419 21.0267 47.5619 20.76Z" fill="#00D98B"/>
<path d="M60.4336 4.5625H65.3945L72.6992 25.4414L80.0039 4.5625H84.9648L74.6914 33H70.707L60.4336 4.5625ZM57.7578 4.5625H62.6992L63.5977 24.9141V33H57.7578V4.5625ZM82.6992 4.5625H87.6602V33H81.8008V24.9141L82.6992 4.5625ZM111.879 28.4297V33H96.7422V28.4297H111.879ZM98.6562 4.5625V33H92.7969V4.5625H98.6562ZM109.906 16.1445V20.5977H96.7422V16.1445H109.906ZM111.859 4.5625V9.15234H96.7422V4.5625H111.859ZM130.102 25.5586C130.102 25.0508 130.023 24.5951 129.867 24.1914C129.724 23.7747 129.451 23.3971 129.047 23.0586C128.643 22.707 128.077 22.362 127.348 22.0234C126.618 21.6849 125.674 21.3333 124.516 20.9688C123.227 20.5521 122.003 20.0833 120.844 19.5625C119.698 19.0417 118.682 18.4362 117.797 17.7461C116.924 17.043 116.234 16.2292 115.727 15.3047C115.232 14.3802 114.984 13.306 114.984 12.082C114.984 10.8971 115.245 9.82292 115.766 8.85938C116.286 7.88281 117.016 7.04948 117.953 6.35938C118.891 5.65625 119.997 5.11589 121.273 4.73828C122.562 4.36068 123.975 4.17188 125.512 4.17188C127.608 4.17188 129.438 4.54948 131 5.30469C132.562 6.0599 133.773 7.09505 134.633 8.41016C135.505 9.72526 135.941 11.2292 135.941 12.9219H130.121C130.121 12.0885 129.945 11.3594 129.594 10.7344C129.255 10.0964 128.734 9.59505 128.031 9.23047C127.341 8.86589 126.469 8.68359 125.414 8.68359C124.398 8.68359 123.552 8.83984 122.875 9.15234C122.198 9.45182 121.69 9.86198 121.352 10.3828C121.013 10.8906 120.844 11.4635 120.844 12.1016C120.844 12.5833 120.961 13.0195 121.195 13.4102C121.443 13.8008 121.807 14.1654 122.289 14.5039C122.771 14.8424 123.363 15.1615 124.066 15.4609C124.77 15.7604 125.583 16.0534 126.508 16.3398C128.057 16.8086 129.418 17.3359 130.59 17.9219C131.775 18.5078 132.764 19.1654 133.559 19.8945C134.353 20.6237 134.952 21.4505 135.355 22.375C135.759 23.2995 135.961 24.3477 135.961 25.5195C135.961 26.7565 135.72 27.8633 135.238 28.8398C134.757 29.8164 134.06 30.6432 133.148 31.3203C132.237 31.9974 131.15 32.5117 129.887 32.8633C128.624 33.2148 127.211 33.3906 125.648 33.3906C124.242 33.3906 122.855 33.2083 121.488 32.8438C120.121 32.4661 118.878 31.8997 117.758 31.1445C116.651 30.3893 115.766 29.4258 115.102 28.2539C114.438 27.082 114.105 25.6953 114.105 24.0938H119.984C119.984 24.9792 120.121 25.7279 120.395 26.3398C120.668 26.9518 121.052 27.4466 121.547 27.8242C122.055 28.2018 122.654 28.4753 123.344 28.6445C124.047 28.8138 124.815 28.8984 125.648 28.8984C126.664 28.8984 127.497 28.7552 128.148 28.4688C128.812 28.1823 129.301 27.7852 129.613 27.2773C129.939 26.7695 130.102 26.1966 130.102 25.5586Z" fill="#00D1FF"/>
</svg>
